####
#
#	OBJ File Generated by LightWave3D
#	LightWave3D OBJ Export v2.3
#
####
o _cubes.obj
mtllib _cubes.mtl
g default
v 1.8 -2 1.6
v 2 -2 2
v 2 -1.8 1.6
v 1.8 -1.8 1.6
v 1.8 1.6 -2
v 2 2 -2
v 2 1.6 -1.8
v 1.8 1.6 -1.8
v -1.6 -2 -1.8
v -1.6 -1.8 -1.8
v -1.6 -1.8 -2
v -2 -2 -2
v 1.8 -2 -1.8
v 2 -1.8 -1.8
v 1.8 -1.8 -1.8
v 2 -2 -2
v 1.8 -1.8 -2
vt 0.0113122 0.0113122
vt 0.0113122 0.576923
vt 0.0113122 0.599548
vt 0.0113122 1.16516
vt 0.0113122 1.21921
vt 0.0113122 1.75339
vt 0.0395927 0.0395928
vt 0.0395927 0.520362
vt 0.0395927 0.627828
vt 0.0395927 1.1086
vt 0.042735 1.75339
vt 0.042735 1.18778
vt 0.042735 1.21921
vt 0.520362 0.0395928
vt 0.520362 0.627828
vt 0.576923 1.21921
vt 0.576923 0.0113122
vt 0.576923 0.599548
vt 0.576923 1.18778
vt 0.59944 1.18627
vt 0.59944 1.28431
vt 0.599548 0.0113122
vt 0.599548 0.576923
vt 0.599548 0.63097
vt 0.599548 1.16516
vt 0.627828 0.0395927
vt 0.627828 0.520362
vt 0.63097 0.599548
vt 0.63097 0.63097
vt 0.63097 1.16516
vt 1.04762 1.18627
vt 1.04762 1.28431
vt 1.1086 0.0395927
vt 1.16516 0.0113122
vt 1.16516 0.599548
vt 1.16516 0.63097
vt 1.18778 0.0113122
vt 1.18778 0.0395928
vt 1.18778 0.520362
vt 1.18778 0.576923
vt 1.18778 0.63097
vt 1.18778 1.16516
vt 1.21606 0.0395928
vt 1.21606 0.0113122
vt 1.21606 0.0395928
vt 1.21606 0.520362
vt 1.21921 0.599548
vt 1.21921 0.63097
vt 1.21921 1.16516
vt 1.69683 0.0113122
vt 1.69683 0.0395928
vt 1.75339 0.0113122
vt 1.75339 0.599548
vt 1.75339 0.63097
vn 0 -0.707107 -0.707107
vn 0 -0.707107 -0.707107
vn 0 -0.707107 -0.707107
vn 0 -0.707107 -0.707107
vn 0 0 -1
vn 0 0 -1
vn 0 0 -1
vn 0 0 -1
vn 0 0 -1
vn 0 0 -1
vn 0 0 -1
vn 0 0 -1
vn -0.57735 0.57735 0.57735
vn -0.57735 0.57735 0.57735
vn -0.57735 0.57735 0.57735
vn -0.57735 0.57735 0.57735
vn -0.57735 0.57735 0.57735
vn -0.57735 0.57735 0.57735
vn -0.57735 0.57735 0.57735
vn -0.57735 0.57735 0.57735
vn -0 1 -0
vn -0 1 -0
vn -0 1 -0
vn -0 1 -0
vn -0 -0 1
vn -0 -0 1
vn -0 -0 1
vn -0 -0 1
vn -1 -2.80492e-07 -4.76835e-06
vn -1 -2.80492e-07 -4.76835e-06
vn -1 -2.80492e-07 -4.76835e-06
vn -1 -2.80492e-07 -4.76835e-06
vn 0.707107 -0.707107 3.37173e-06
vn 0.707107 -0.707107 3.37173e-06
vn 0.707107 -0.707107 3.37173e-06
vn 0.707107 -0.707107 3.37173e-06
vn 0 1 0
vn 0 1 0
vn 0 1 0
vn 0 1 0
vn 0 -1 -0
vn 0 -1 -0
vn 0 -1 -0
vn 0 -1 -0
vn 0 -1 -0
vn 0 -1 -0
vn 0 -1 -0
vn 0 -1 -0
vn 1 0 -0
vn 1 0 -0
vn 1 0 -0
vn 1 0 -0
vn 1 0 -0
vn 1 0 -0
vn 1 0 -0
vn 1 0 -0
vn -1 0 -0
vn -1 0 -0
vn -1 0 -0
vn -1 0 -0
vn 0.707107 -0 -0.707107
vn 0.707107 -0 -0.707107
vn 0.707107 -0 -0.707107
vn 0.707107 -0 -0.707107
vn 0 0 1
vn 0 0 1
vn 0 0 1
vn 0 0 1
g hull-light
usemtl hull-light
s off
f 7/41/1 3/42/2 4/49/3 8/48/4
f 16/3/5 12/18/6 11/15/7 17/9/8 5/10/9 11/15/10 12/18/11 6/4/12
f 2/37/13 4/43/14 10/51/15 8/46/16 4/43/17 2/37/18 6/40/19 12/52/20
f 4/11/21 3/6/22 14/5/23 15/13/24
f 8/46/25 15/45/26 14/38/27 7/39/28
f 5/25/29 17/24/30 15/29/31 8/30/32
f 8/48/33 10/54/34 11/53/35 5/47/36
f 17/12/37 11/19/38 10/16/39 15/13/40
f 16/22/41 2/23/42 1/27/43 13/26/44 9/33/45 1/27/46 2/23/47 12/34/48
f 2/17/49 3/14/50 7/8/51 14/7/52 3/14/53 2/17/54 16/1/55 6/2/56
f 1/35/57 4/36/58 15/29/59 13/28/60
f 9/20/61 10/21/62 4/32/63 1/31/64
f 15/45/65 10/51/66 9/50/67 13/44/68
v 1.8 -2 -1.8
v 1.8 -2 1.8
v -1.8 -2 -1.8
v -1.8 -2 1.8
v 2 2 -2
v 2 2 -1.8
v 1.8 2 -1.8
v 1.8 2 -2
v 1.8 1.8 -2
v 2 1.8 -2
v 2 1.8 -1.8
v 1.8 1.8 -1.8
v -2 2 -2
v -2 2 -1.8
v -1.8 2 -1.8
v -1.8 2 -2
v -2 1.8 -2
v -1.8 1.8 -2
v -1.8 1.8 -1.8
v -2 1.8 -1.8
v 1.8 -2 -2
v 2 -2 -2
v 2 -2 -1.8
v 2 -2 -1.8
v 1.8 -2 -2
v 1.8 -2 -1.8
v 1.8 -1.8 -2
v 2 -1.8 -2
v 2 -1.8 -1.8
v 1.8 -1.8 -1.8
v -2 -2 -1.8
v -2 -2 -2
v -1.8 -2 -2
v -2 -2 -1.8
v -1.8 -2 -2
v -1.8 -2 -1.8
v -2 -1.8 -2
v -1.8 -1.8 -2
v -1.8 -1.8 -1.8
v -2 -1.8 -1.8
v 2 1.8 2
v 2 2 2
v 2 2 1.8
v 1.8 2 2
v 1.8 2 1.8
v 1.8 1.8 2
v 1.8 1.8 1.8
v 2 1.8 1.8
v 2 1.8 2
v 1.8 1.8 2
v -2 1.8 2
v -2 2 2
v -2 2 1.8
v -1.8 2 2
v -1.8 2 1.8
v -1.8 1.8 2
v -2 1.8 1.8
v -1.8 1.8 1.8
v -1.8 1.8 2
v -2 1.8 2
v 2 -2 1.8
v 1.8 -2 2
v 2 -2 2
v 2 -1.8 2
v 2 -2 1.8
v 1.8 -1.8 2
v 1.8 -2 1.8
v 1.8 -2 2
v 1.8 -1.8 1.8
v 2 -1.8 1.8
v 2 -1.8 2
v 1.8 -1.8 2
v -2 -2 1.8
v -2 -1.8 2
v -2 -2 2
v -1.8 -2 2
v -2 -2 1.8
v -1.8 -1.8 2
v -1.8 -2 1.8
v -1.8 -2 2
v -2 -1.8 1.8
v -1.8 -1.8 1.8
v -1.8 -1.8 2
v -2 -1.8 2
vt 0.00149315 0.0462876
vt 0.00149315 0.852589
vt 0.00149315 0.945164
vt 0.00149315 1.75147
vt 0.00149315 1.79925
vt 0.00149315 1.84404
vt 0.00149315 2.65034
vt 0.00149315 2.69514
vt 0.0462876 0.00149315
vt 0.0462876 0.0462876
vt 0.0462876 0.852589
vt 0.0462876 0.897383
vt 0.0462876 1.79925
vt 0.0462876 1.84404
vt 0.0462876 2.65034
vt 0.0462876 2.69514
vt 0.0462877 0.90037
vt 0.0462877 0.945164
vt 0.0462877 1.75147
vt 0.0462877 1.79626
vt 0.852589 0.90037
vt 0.852589 0.945164
vt 0.852589 1.75147
vt 0.852589 1.79626
vt 0.852589 0.00149315
vt 0.852589 0.0462876
vt 0.852589 0.852589
vt 0.852589 0.897383
vt 0.852589 1.79925
vt 0.852589 1.84404
vt 0.852589 2.65034
vt 0.852589 2.69514
vt 0.897383 0.0462876
vt 0.897383 0.852589
vt 0.897383 0.945164
vt 0.897383 1.75147
vt 0.897383 1.79925
vt 0.897383 1.84404
vt 0.897383 2.65034
vt 0.897383 2.69514
vt 0.90037 0.0462876
vt 0.90037 0.852589
vt 0.90037 0.945164
vt 0.90037 1.75147
vt 0.90037 1.84404
vt 0.90037 2.65034
vt 0.90037 0.90037
vt 0.90037 0.945164
vt 0.90037 1.75147
vt 0.90037 1.79626
vt 0.945164 0.90037
vt 0.945164 1.79626
vt 0.945164 1.79925
vt 0.945164 1.84404
vt 0.945164 2.65034
vt 0.945164 2.69514
vt 0.945164 0.00149315
vt 0.945164 0.0462876
vt 0.945164 0.852589
vt 0.945164 0.897383
vt 0.945164 0.90037
vt 0.945164 0.945164
vt 0.945164 1.75147
vt 1.75147 0.00149315
vt 1.75147 0.0462876
vt 1.75147 0.852589
vt 1.75147 0.897383
vt 1.75147 0.90037
vt 1.75147 0.90037
vt 1.75147 0.945164
vt 1.75147 1.75147
vt 1.75147 1.79626
vt 1.75147 1.79925
vt 1.75147 1.84404
vt 1.75147 2.65034
vt 1.75147 2.69514
vt 1.79626 0.0462876
vt 1.79626 0.852589
vt 1.79626 0.90037
vt 1.79626 0.945164
vt 1.79626 1.75147
vt 1.79626 1.79626
vt 1.79626 1.84404
vt 1.79626 2.65034
vt 1.79925 0.00149316
vt 1.79925 0.0462876
vt 1.79925 0.0462877
vt 1.79925 0.852589
vt 1.79925 0.852589
vt 1.79925 0.897383
vt 1.79925 0.90037
vt 1.79925 0.945164
vt 1.79925 1.75147
vt 1.79925 1.79626
vt 1.79925 1.84404
vt 1.79925 2.65034
vt 1.84404 0.00149315
vt 1.84404 0.897383
vt 1.84404 0.90037
vt 1.84404 0.90037
vt 1.84404 0.945164
vt 1.84404 1.75147
vt 1.84404 1.79626
vt 1.84404 1.79925
vt 1.84404 1.84404
vt 1.84404 2.65034
vt 1.84404 2.69514
vt 1.84404 0.00149316
vt 1.84404 0.0462876
vt 1.84404 0.852589
vt 2.65034 0.00149315
vt 2.65034 0.00149316
vt 2.65034 0.0462876
vt 2.65034 0.852589
vt 2.65034 0.897383
vt 2.65034 0.90037
vt 2.65034 0.90037
vt 2.65034 0.945164
vt 2.65034 1.75147
vt 2.65034 1.79626
vt 2.65034 1.79925
vt 2.65034 1.84404
vt 2.65034 2.65034
vt 2.65034 2.69514
vt 2.69514 0.00149316
vt 2.69514 0.0462876
vt 2.69514 0.852589
vt 2.69514 0.897383
vt 2.69514 0.90037
vt 2.69514 0.945164
vt 2.69514 1.75147
vt 2.69514 1.79626
vt 2.69514 1.84404
vt 2.69514 2.65034
vt 2.69812 0.0462876
vt 2.69812 0.852589
vt 2.69812 0.900303
vt 2.69812 0.957375
vt 2.69812 0.960228
vt 2.69812 1.0173
vt 2.69812 1.84404
vt 2.69812 2.65034
vt 2.74292 0.00149315
vt 2.74292 0.0462876
vt 2.74292 0.852589
vt 2.74292 0.897383
vt 2.74292 0.900303
vt 2.74292 0.957375
vt 2.74292 0.960228
vt 2.74292 1.0173
vt 2.74292 1.79925
vt 2.74292 1.84404
vt 2.74292 2.65034
vt 2.74292 2.69514
vt 3.54922 0.00149315
vt 3.54922 0.0462876
vt 3.54922 0.852589
vt 3.54922 0.897383
vt 3.54922 0.900303
vt 3.54922 0.957375
vt 3.54922 0.960228
vt 3.54922 1.0173
vt 3.54922 1.79925
vt 3.54922 1.84404
vt 3.54922 2.65034
vt 3.54922 2.69514
vt 3.59401 0.0462876
vt 3.59401 0.852589
vt 3.59401 0.900303
vt 3.59401 0.957375
vt 3.59401 0.960228
vt 3.59401 1.0173
vt 3.59401 1.84404
vt 3.59401 2.65034
vt 3.59691 0.0014927
vt 3.59691 0.822477
vt 3.63905 0.0014927
vt 3.63905 0.822477
vt 3.64185 0.0014927
vt 3.64185 0.822477
vt 3.68399 0.0014927
vt 3.68399 0.822477
vt 3.6868 0.00142679
vt 3.6868 0.0584983
vt 3.72893 0.00142679
vt 3.72893 0.0584983
vt 3.73174 0.00142679
vt 3.73174 0.0584983
vt 3.77388 0.00142679
vt 3.77388 0.0584983
vt 3.77669 0.00140449
vt 3.77669 0.0435393
vt 3.81882 0.00140449
vt 3.81882 0.0435393
vt 3.82163 0.00140449
vt 3.82163 0.0435393
vt 3.86376 0.00140449
vt 3.86376 0.0435393
vn 0 0 1
vn 0 0 1
vn 0 0 1
vn 0 0 1
vn 1 0 -0
vn 1 0 -0
vn 1 0 -0
vn 1 0 -0
vn 0 0 -1
vn 0 0 -1
vn 0 0 -1
vn 0 0 -1
vn -1 0 -0
vn -1 0 -0
vn -1 0 -0
vn -1 0 -0
vn 0 0 1
vn 0 0 1
vn 0 0 1
vn 0 0 1
vn 1 0 -0
vn 1 0 -0
vn 1 0 -0
vn 1 0 -0
vn 0 0 -1
vn 0 0 -1
vn 0 0 -1
vn 0 0 -1
vn -1 0 -0
vn -1 0 -0
vn -1 0 -0
vn -1 0 -0
vn 0 0 1
vn 0 0 1
vn 0 0 1
vn 0 0 1
vn 1 0 -0
vn 1 0 -0
vn 1 0 -0
vn 1 0 -0
vn 0 0 -1
vn 0 0 -1
vn 0 0 -1
vn 0 0 -1
vn -1 0 -0
vn -1 0 -0
vn -1 0 -0
vn -1 0 -0
vn 0 0 1
vn 0 0 1
vn 0 0 1
vn 0 0 1
vn 1 0 -0
vn 1 0 -0
vn 1 0 -0
vn 1 0 -0
vn 0 0 -1
vn 0 0 -1
vn 0 0 -1
vn 0 0 -1
vn -1 0 -0
vn -1 0 -0
vn -1 0 -0
vn -1 0 -0
vn 0 -1 -0
vn 0 -1 -0
vn 0 -1 -0
vn 0 -1 -0
vn 0 0 -1
vn 0 0 -1
vn 0 0 -1
vn 0 0 -1
vn 0 1 -0
vn 0 1 -0
vn 0 1 -0
vn 0 1 -0
vn 0 0 1
vn 0 0 1
vn 0 0 1
vn 0 0 1
vn 0 -1 -1.19209e-06
vn 0 -1 -1.19209e-06
vn 0 -1 -1.19209e-06
vn 0 -1 -1.19209e-06
vn 0 0 -1
vn 0 0 -1
vn 0 0 -1
vn 0 0 -1
vn 0 1 -0
vn 0 1 -0
vn 0 1 -0
vn 0 1 -0
vn 0 0 1
vn 0 0 1
vn 0 0 1
vn 0 0 1
vn 0 -1 -0
vn 0 -1 -0
vn 0 -1 -0
vn 0 -1 -0
vn 0 0 -1
vn 0 0 -1
vn 0 0 -1
vn 0 0 -1
vn -0 1 -1.19209e-06
vn -0 1 -1.19209e-06
vn -0 1 -1.19209e-06
vn -0 1 -1.19209e-06
vn 0 0 1
vn 0 0 1
vn 0 0 1
vn 0 0 1
vn 0 -1 -0
vn 0 -1 -0
vn 0 -1 -0
vn 0 -1 -0
vn 0 0 -1
vn 0 0 -1
vn 0 0 -1
vn 0 0 -1
vn 0 1 -0
vn 0 1 -0
vn 0 1 -0
vn 0 1 -0
vn 0 0 1
vn 0 0 1
vn 0 0 1
vn 0 0 1
vn 0 -1 -0
vn 0 -1 -0
vn 0 -1 -0
vn 0 -1 -0
vn 1 -0 -0
vn 1 -0 -0
vn 1 -0 -0
vn 1 -0 -0
vn -0 1 -0
vn -0 1 -0
vn -0 1 -0
vn -0 1 -0
vn -1 0 -0
vn -1 0 -0
vn -1 0 -0
vn -1 0 -0
vn 0 -1 -0
vn 0 -1 -0
vn 0 -1 -0
vn 0 -1 -0
vn 1 -0 -0
vn 1 -0 -0
vn 1 -0 -0
vn 1 -0 -0
vn -0 1 -0
vn -0 1 -0
vn -0 1 -0
vn -0 1 -0
vn -1 0 -0
vn -1 0 -0
vn -1 0 -0
vn -1 0 -0
vn 0 -1 -0
vn 0 -1 -0
vn 0 -1 -0
vn 0 -1 -0
vn 1 -0 -0
vn 1 -0 -0
vn 1 -0 -0
vn 1 -0 -0
vn -0 1 -0
vn -0 1 -0
vn -0 1 -0
vn -0 1 -0
vn -1 0 -0
vn -1 0 -0
vn -1 0 -0
vn -1 0 -0
vn 0 -1 -0
vn 0 -1 -0
vn 0 -1 -0
vn 0 -1 -0
vn 1 -0 -0
vn 1 -0 -0
vn 1 -0 -0
vn 1 -0 -0
vn -0 1 -0
vn -0 1 -0
vn -0 1 -0
vn -0 1 -0
vn -1 0 -0
vn -1 0 -0
vn -1 0 -0
vn -1 0 -0
vn 0 0 -1
vn 0 0 -1
vn 0 0 -1
vn 0 0 -1
vn 1 -0 -0
vn 1 -0 -0
vn 1 -0 -0
vn 1 -0 -0
vn -0 1 -0
vn -0 1 -0
vn -0 1 -0
vn -0 1 -0
vn 0 -1 -0
vn 0 -1 -0
vn 0 -1 -0
vn 0 -1 -0
vn 1 0 -0
vn 1 0 -0
vn 1 0 -0
vn 1 0 -0
vn 0 0 -1
vn 0 0 -1
vn 0 0 -1
vn 0 0 -1
vn 0 0 1
vn 0 0 1
vn 0 0 1
vn 0 0 1
vn 1 0 -0
vn 1 0 -0
vn 1 0 -0
vn 1 0 -0
vn 0 -1 -0
vn 0 -1 -0
vn 0 -1 -0
vn 0 -1 -0
vn -0 1 -0
vn -0 1 -0
vn -0 1 -0
vn -0 1 -0
vn 1 0 -0
vn 1 0 -0
vn 1 0 -0
vn 1 0 -0
vn 0 0 1
vn 0 0 1
vn 0 0 1
vn 0 0 1
vn -1 0 -0
vn -1 0 -0
vn -1 0 -0
vn -1 0 -0
vn 0 1 -0
vn 0 1 -0
vn 0 1 -0
vn 0 1 -0
vn 0 -1 -0
vn 0 -1 -0
vn 0 -1 -0
vn 0 -1 -0
vn -1 0 -0
vn -1 0 -0
vn -1 0 -0
vn -1 0 -0
vn 0 -0 -1
vn 0 -0 -1
vn 0 -0 -1
vn 0 -0 -1
vn -0 -0 1
vn -0 -0 1
vn -0 -0 1
vn -0 -0 1
vn -1 0 -0
vn -1 0 -0
vn -1 0 -0
vn -1 0 -0
vn 0 -1 -0
vn 0 -1 -0
vn 0 -1 -0
vn 0 -1 -0
vn 0 1 -0
vn 0 1 -0
vn 0 1 -0
vn 0 1 -0
vn -1 -0 0
vn -1 -0 0
vn -1 -0 0
vn -1 -0 0
vn -0 -0 1
vn -0 -0 1
vn -0 -0 1
vn -0 -0 1
vn 0 -0 -1
vn 0 -0 -1
vn 0 -0 -1
vn 0 -0 -1
usemtl hull-light
f 46/87/69 28/88/70 29/81/71 47/80/72
f 45/134/73 27/135/74 28/125/75 46/124/76
f 26/173/77 27/185/78 45/184/79 44/172/80
f 29/77/81 26/90/82 44/89/83 47/76/84
f 56/64/85 36/65/86 37/56/87 57/55/88
f 55/131/89 35/132/90 36/120/91 56/119/92
f 34/147/93 35/156/94 55/155/95 54/146/96
f 37/168/97 34/181/98 54/180/99 57/167/100
f 100/235/101 76/236/102 77/234/103 101/233/104
f 99/112/105 75/113/106 76/96/107 100/95/108
f 74/190/109 75/199/110 99/198/111 98/189/112
f 77/143/113 74/164/114 98/163/115 101/140/116
f 88/231/117 66/232/118 67/230/119 89/229/120
f 87/116/121 65/117/122 66/98/123 88/97/124
f 64/211/125 65/222/126 87/221/127 86/210/128
f 67/58/129 64/73/130 86/72/131 89/57/132
f 35/161/133 26/178/134 29/177/135 36/160/136
f 33/157/137 25/174/138 26/173/139 35/156/140
f 24/85/141 25/86/142 33/70/143 32/69/144
f 29/81/145 24/82/146 32/66/147 36/65/148
f 75/159/149 64/176/150 63/175/151 73/158/152
f 72/200/153 62/212/154 64/211/155 75/199/156
f 61/83/157 62/84/158 72/68/159 71/67/160
f 63/215/161 61/216/162 71/204/163 73/203/164
f 96/108/165 84/128/166 85/127/167 97/107/168
f 99/198/169 86/210/170 84/209/171 96/197/172
f 83/217/173 86/218/174 99/206/175 95/205/176
f 85/213/177 83/214/178 95/202/179 97/201/180
f 52/110/181 42/130/182 43/129/183 53/109/184
f 55/155/185 44/172/186 42/170/187 52/153/188
f 47/219/189 44/220/190 55/208/191 56/207/192
f 43/79/193 47/80/194 56/64/195 53/63/196
f 28/188/197 65/187/198 64/176/199 29/177/200
f 23/126/201 60/106/202 65/117/203 28/125/204
f 62/84/205 60/92/206 23/93/207 24/85/208
f 64/73/209 62/74/210 24/78/211 29/77/212
f 36/160/213 75/159/214 74/149/215 37/150/216
f 32/121/217 72/114/218 75/113/219 36/120/220
f 70/60/221 72/68/222 32/69/223 31/61/224
f 74/164/225 70/152/226 31/169/227 37/168/228
f 53/109/229 96/108/230 94/99/231 51/100/232
f 56/119/233 99/112/234 96/111/235 53/118/236
f 98/195/237 99/206/238 56/207/239 57/196/240
f 94/151/241 98/163/242 57/167/243 51/165/244
f 41/138/245 82/137/246 84/128/247 43/129/248
f 46/124/249 87/116/250 82/105/251 41/122/252
f 86/218/253 87/227/254 46/228/255 47/219/256
f 84/71/257 86/72/258 47/76/259 43/75/260
f 25/174/261 22/186/262 27/185/263 26/173/264
f 22/136/265 23/126/266 28/125/267 27/135/268
f 24/85/269 23/93/270 22/94/271 25/86/272
f 38/238/273 39/240/274 40/239/275 18/237/276
f 39/133/277 45/134/278 46/124/279 40/123/280
f 44/172/281 45/184/282 39/183/283 38/171/284
f 79/213/285 80/223/286 81/224/287 83/214/288
f 80/101/289 78/115/290 87/116/291 81/102/292
f 19/246/293 78/248/294 80/247/295 79/245/296
f 61/83/297 59/91/298 60/92/299 62/84/300
f 59/104/301 58/103/302 65/117/303 60/106/304
f 63/215/305 58/225/306 59/226/307 61/216/308
f 37/168/309 31/169/310 30/182/311 34/181/312
f 30/62/313 31/61/314 32/69/315 33/70/316
f 48/241/317 49/242/318 50/244/319 20/243/320
f 57/167/321 54/180/322 49/179/323 48/166/324
f 49/145/325 54/146/326 55/155/327 50/154/328
f 91/192/329 92/191/330 93/201/331 95/202/332
f 98/163/333 90/162/334 92/139/335 91/141/336
f 92/249/337 90/250/338 21/252/339 93/251/340
f 70/60/341 69/59/342 71/67/343 72/68/344
f 74/164/345 68/142/346 69/144/347 70/152/348
f 69/194/349 68/193/350 73/203/351 71/204/352
f 34/147/353 30/148/354 33/157/355 35/156/356
v 1.6 1.8 1.8
v 2 1.8 1.8
v 2 2 1.8
v 1.8 2 1.6
v 1.8 2 1.8
v 1.8 1.6 2
v 2 1.8 2
v 2 2 2
v 1.8 1.8 2
v -1.8 -2 1.8
v -2 -1.8 1.6
v -2 -2 1.8
v -2 -1.8 1.8
v -1.8 -1.6 1.8
v -1.6 -1.8 2
v -2 -2 2
v -1.8 -2 2
v -1.8 -1.8 2
v 1.8 -2 1.8
v 2 -2 1.8
v 2 -1.8 1.8
v 1.8 -1.8 2
v 1.8 -2 2
v 2 -2 2
v 2 -1.8 2
v -2 1.6 -1.8
v -1.8 1.8 -1.6
v -2 1.8 -1.8
v -1.6 2 -1.8
v -1.8 2 -1.8
v -2 1.8 -2
v -2 2 -2
v -1.8 1.8 -2
v -1.8 2 -2
v 1.8 2 -1.8
v 2 1.8 -1.8
v 2 2 -1.8
v 1.8 2 -2
v 2 2 -2
v 2 1.8 -2
v 1.8 1.8 -2
v -1.8 -2 -1.8
v -2 -1.8 -1.8
v -2 -2 -1.8
v -1.8 -2 -2
v -2 -2 -2
v -2 -1.8 -2
v -1.8 -1.8 -2
v 1.8 -2 -1.8
v 2 -1.8 -1.8
v 2 -2 -1.8
v 2 -1.8 -2
v 2 -2 -2
v 1.8 -2 -2
v 1.8 -1.8 -2
vt 0.0101215 0.0101215
vt 0.0101215 0.0354251
vt 0.0101215 0.490891
vt 0.0101215 0.516194
vt 0.0101215 0.536437
vt 0.0101215 0.561741
vt 0.0101215 1.01721
vt 0.0101215 1.04251
vt 0.0101215 1.06275
vt 0.0101215 1.08806
vt 0.0101215 1.54352
vt 0.0101215 1.56883
vt 0.0354251 0.0101215
vt 0.0354251 0.0354251
vt 0.0354251 0.490891
vt 0.0354251 0.516194
vt 0.0354251 0.536437
vt 0.0354251 0.561741
vt 0.0354251 0.991903
vt 0.0354251 1.01721
vt 0.0354251 1.06275
vt 0.0354251 1.08806
vt 0.0354251 1.54352
vt 0.0354251 1.56883
vt 0.465587 0.561741
vt 0.490891 0.0101215
vt 0.490891 0.0354251
vt 0.490891 0.490891
vt 0.490891 0.516194
vt 0.490891 0.536437
vt 0.490891 0.561741
vt 0.490891 1.06275
vt 0.490891 1.08806
vt 0.490891 1.54352
vt 0.490891 1.56883
vt 0.516194 0.0101215
vt 0.516194 0.0354251
vt 0.516194 0.490891
vt 0.516194 0.516194
vt 0.516194 0.536437
vt 0.516194 1.06275
vt 0.516194 1.08806
vt 0.516194 1.54352
vt 0.516194 1.56883
vt 0.536437 0.0101215
vt 0.536437 0.0354251
vt 0.536437 0.490891
vt 0.536437 0.516194
vt 0.536437 0.563073
vt 0.536437 1.04251
vt 0.536437 1.06275
vt 0.536437 1.08806
vt 0.536437 1.54352
vt 0.536437 1.56883
vt 0.561741 0.0101215
vt 0.561741 0.0354251
vt 0.561741 0.490891
vt 0.561741 0.516194
vt 0.561741 0.563073
vt 0.561741 1.01587
vt 0.561741 1.06275
vt 0.561741 1.08806
vt 0.561741 1.51822
vt 0.561741 1.54352
vt 0.561741 1.56883
vt 0.587044 1.04251
vt 0.587044 1.54352
vt 0.991903 0.563073
vt 0.991903 1.08806
vt 1.01721 0.0101215
vt 1.01721 0.0354251
vt 1.01721 0.490891
vt 1.01721 0.516194
vt 1.01721 0.536437
vt 1.01721 0.589708
vt 1.01721 1.06275
vt 1.01721 1.08806
vt 1.01721 1.11336
vt 1.01721 1.54352
vt 1.01721 1.56883
vt 1.04251 0.0101215
vt 1.04251 0.0354251
vt 1.04251 0.490891
vt 1.04251 0.516194
vt 1.04251 0.563073
vt 1.04251 1.06275
vt 1.04251 1.08806
vt 1.04251 1.54352
vt 1.04251 1.56883
vt 1.06275 0.0101215
vt 1.06275 0.0354251
vt 1.06275 0.490891
vt 1.06275 0.516194
vt 1.06275 0.561741
vt 1.06275 1.01721
vt 1.06275 1.08806
vt 1.06275 1.54352
vt 1.08806 0.0101215
vt 1.08806 0.0354251
vt 1.08806 0.465587
vt 1.08806 0.490891
vt 1.08806 0.536437
vt 1.08806 0.561741
vt 1.08806 1.01721
vt 1.08806 1.04251
vt 1.08806 1.06275
vt 1.08806 1.08806
vt 1.08806 1.51822
vt 1.08806 1.56883
vt 1.11336 1.54352
vt 1.51822 0.0354251
vt 1.51822 1.04251
vt 1.51822 1.08806
vt 1.54352 0.0101215
vt 1.54352 0.0354251
vt 1.54352 0.536437
vt 1.54352 0.561741
vt 1.54352 1.01721
vt 1.54352 1.06275
vt 1.54352 1.11336
vt 1.56883 0.0101215
vt 1.56883 0.561741
vt 1.56883 0.991903
vt 1.56883 1.08806
vt 1.58897 0.0100251
vt 1.58897 0.0311305
vt 1.58897 0.389922
vt 1.58897 0.429825
vt 1.58897 0.517544
vt 1.61125 0.411028
vt 1.9677 0.0311305
vt 1.98997 0.0100251
vt 1.98997 0.0522358
vt 1.98997 0.429825
vt 1.98997 0.517544
vn 0 0 1
vn 0 0 1
vn 0 0 1
vn 0 0 1
vn 0 0 1
vn 0 0 1
vn 0 0 1
vn 0 0 1
vn 0 0 1
vn 0 0 1
vn 0 0 1
vn 0 0 1
vn 0 0 1
vn 0 0 1
vn -0 0 -1
vn -0 0 -1
vn -0 0 -1
vn -0 0 -1
vn -0 0 -1
vn -0 0 -1
vn -0 0 -1
vn -0 0 -1
vn -0 0 -1
vn -0 0 -1
vn -0 0 -1
vn -0 0 -1
vn -0 0 -1
vn -0 0 -1
vn -0 0 -1
vn -0 0 -1
vn -0 0 -1
vn -0 0 -1
vn -0 1 -0
vn -0 1 -0
vn -0 1 -0
vn -0 1 -0
vn 1 0 -0
vn 1 0 -0
vn 1 0 -0
vn 1 0 -0
vn 1 0 0
vn 1 0 0
vn 1 0 0
vn 1 0 0
vn 0 1 -0
vn 0 1 -0
vn 0 1 -0
vn 1 -0 -0
vn 1 -0 -0
vn 1 -0 -0
vn 1 -0 -0
vn 1 0 0
vn 1 0 0
vn 1 0 0
vn 1 0 0
vn 0 1 -0
vn 0 1 -0
vn 0 1 -0
vn 0 1 -0
vn 0 1 -0
vn 0 1 -0
vn 0 1 -0
vn 0 1 -0
vn 0 1 -0
vn 0 1 -0
vn 0 1 -0
vn 0 1 -0
vn -0.577349 0.577351 0.577351
vn -0.577349 0.577351 0.577351
vn -0.577349 0.577351 0.577351
vn -0.577349 0.577351 0.577351
vn -0.577349 0.577351 0.577351
vn -0.577349 0.577351 0.577351
vn -0.577349 0.577351 0.577351
vn -0.577349 0.577351 0.577351
vn -0.577349 0.577351 0.577351
vn -0.577349 0.577351 0.577351
vn -0.577349 0.577351 0.577351
vn -0.577349 0.577351 0.577351
vn -0.577349 0.577351 0.577351
vn -0.577349 0.577351 0.577351
vn 0 1 0
vn 0 1 0
vn 0 1 0
vn 0 1 0
vn 0 1 -0
vn 0 1 -0
vn 0 1 -0
vn 1 -0 -0
vn 1 -0 -0
vn 1 -0 -0
vn 1 -0 -0
vn 1 0 0
vn 1 0 0
vn 1 0 0
vn 1 0 0
vn 1 -0 -0
vn 1 -0 -0
vn 1 -0 -0
vn 1 -0 -0
vn 1 0 -0
vn 1 0 -0
vn 1 0 -0
vn 1 0 -0
vn -1 -0 -0
vn -1 -0 -0
vn -1 -0 -0
vn -1 -0 -0
vn -1 -0 -0
vn -1 -0 -0
vn -1 -0 -0
vn -1 -0 -0
vn -1 -0 -0
vn -1 -0 -0
vn -1 -0 -0
vn -1 -0 -0
vn -1 -0 -0
vn -1 -0 -0
vn 0 -1 -0
vn 0 -1 -0
vn 0 -1 -0
vn 0 -1 -0
vn 0 -1 -0
vn 0 -1 -0
vn 0 -1 -0
vn 0 -1 -0
vn 0 -1 -0
vn 0 -1 -0
vn 0 -1 -0
vn 0 -1 -0
vn -0 -1 0
vn -0 -1 0
vn -0 -1 0
vn -0 -1 0
vn 0 -1 -0
vn 0 -1 -0
vn 0 -1 -0
vn 0 -1 -0
vn 0 -1 -0
vn 0 -1 -0
vn 0 -1 -0
vn 0 -1 -0
vn 0 -1 -0
vn 0 -1 -0
vn 0 -1 -0
vn 0 -1 -0
vn 0 -1 -0
vn 0 -1 -0
vn 0 -1 -0
vn 0 -1 -0
vn -0.577351 0.577351 0.577349
vn -0.577351 0.577351 0.577349
vn -0.577351 0.577351 0.577349
vn -0.707107 0.707106 -0
vn -0.707107 0.707106 -0
vn -0.707107 0.707106 -0
vn -0.707107 0.707106 -0
vn -0.577351 0.577351 -0.577349
vn -0.577351 0.577351 -0.577349
vn -0.577351 0.577351 -0.577349
vn 0 0.707108 -0.707106
vn 0 0.707108 -0.707106
vn 0 0.707108 -0.707106
vn 0 0.707108 -0.707106
vn 0.707108 -0 -0.707105
vn 0.707108 -0 -0.707105
vn 0.707108 -0 -0.707105
vn 0.707105 -0 -0.707108
vn 0.707105 -0 -0.707108
vn 0.707105 -0 -0.707108
vn 0.707107 0.707106 0
vn 0.707107 0.707106 0
vn 0.707107 0.707106 0
vn 0.707107 0.707106 0
vn 0.577351 0.577351 0.577349
vn 0.577351 0.577351 0.577349
vn 0.577351 0.577351 0.577349
vn 0 0.707108 0.707106
vn 0 0.707108 0.707106
vn 0 0.707108 0.707106
vn 0 0.707108 0.707106
vn 0.40825 -0.40825 -0.816495
vn 0.40825 -0.40825 -0.816495
vn 0.40825 -0.40825 -0.816495
vn 0.40825 -0.40825 -0.816495
vn 0.816496 -0.408249 -0.408249
vn 0.816496 -0.408249 -0.408249
vn 0.816496 -0.408249 -0.408249
vn 0.816496 -0.408249 -0.408249
vn 0.707107 -0.707106 -0
vn 0.707107 -0.707106 -0
vn 0.707107 -0.707106 -0
vn 0.707107 -0.707106 -0
vn 0 -0.707108 0.707106
vn 0 -0.707108 0.707106
vn 0 -0.707108 0.707106
vn 0 -0.707108 0.707106
vn -0.577351 -0.577351 0.577349
vn -0.577351 -0.577351 0.577349
vn -0.577351 -0.577351 0.577349
vn -0.707107 -0.707106 0
vn -0.707107 -0.707106 0
vn -0.707107 -0.707106 0
vn -0.707107 -0.707106 0
vn -3.39151e-06 -0.707106 -0.707107
vn -3.39151e-06 -0.707106 -0.707107
vn -3.39151e-06 -0.707106 -0.707107
vn -3.39151e-06 -0.707106 -0.707107
vn 0.408249 -0.816496 -0.408249
vn 0.408249 -0.816496 -0.408249
vn 0.408249 -0.816496 -0.408249
vn 0.408249 -0.816496 -0.408249
vn 0.707108 0 0.707105
vn 0.707108 0 0.707105
vn 0.707108 0 0.707105
vn 0.707108 0 0.707105
vn -0.707108 0 0.707105
vn -0.707108 0 0.707105
vn -0.707108 0 0.707105
vn -0.707108 0 0.707105
vn -0.707108 0 -0.707105
vn -0.707108 0 -0.707105
vn -0.707108 0 -0.707105
vn -0.707108 0 -0.707105
usemtl hull-light
f 116/363/357 107/352/358 123/351/359 116/363/360 119/367/361 117/373/362 118/366/363 124/350/364 125/342/365 126/343/366 108/344/367 109/345/368 110/353/369 119/367/370
f 139/310/371 140/300/372 141/299/373 153/298/374 154/297/375 155/307/376 146/322/377 147/333/378 148/334/379 132/335/380 133/336/381 135/325/382 134/324/383 149/323/384 156/308/385 142/309/386 134/324/387 135/325/388
f 109/306/389 104/305/390 105/315/391 106/316/392
f 122/285/393 103/286/394 108/295/395 126/294/396
f 108/295/397 103/286/398 104/287/399 109/296/400
f 133/338/401 131/329/402 135/328/403
f 153/262/404 151/274/405 152/273/406 154/261/407
f 103/286/408 137/275/409 138/276/410 104/287/411
f 136/314/412 105/315/413 104/305/414 138/304/415
f 139/313/416 136/314/417 138/304/418 140/303/419
f 135/328/420 130/321/421 136/314/422 139/313/423
f 114/340/424 117/341/425 119/332/426 110/317/427 109/306/428 106/316/429 131/329/430 133/338/431 129/339/432 128/330/433 102/319/434 115/331/435 128/330/436 129/339/437
f 105/315/438 130/321/439 131/329/440 106/316/441
f 131/329/442 130/321/443 135/328/444
f 122/285/445 126/294/446 125/293/447 121/284/448
f 137/275/449 141/263/450 140/264/451 138/276/452
f 151/274/453 122/285/454 121/284/455 152/273/456
f 137/275/457 151/274/458 153/262/459 141/263/460
f 127/271/461 112/277/462 144/270/463 127/271/464 129/272/465 133/260/466 132/259/467 148/258/468 147/257/469 145/269/470 113/282/471 117/292/472 114/283/473 129/272/474
f 118/281/475 111/280/476 120/267/477 124/268/478
f 154/253/479 152/254/480 150/266/481 155/265/482
f 155/265/483 150/266/484 143/279/485 146/278/486
f 143/279/487 145/289/488 147/288/489 146/278/490
f 120/267/491 150/266/492 152/254/493 121/255/494
f 124/268/495 120/267/496 121/255/497 125/256/498
f 143/279/499 111/280/500 113/290/501 145/289/502
f 117/291/503 113/290/504 111/280/505 118/281/506
f 151/346/507 156/355/508 150/354/509
f 120/386/510 122/387/511 151/381/512 150/380/513
f 123/359/514 122/348/515 120/358/516
f 111/371/517 116/365/518 123/359/519 120/358/520
f 115/372/521 116/365/522 111/371/523
f 112/376/524 115/372/525 111/371/526
f 143/377/527 144/378/528 112/383/529 111/384/530
f 149/369/531 144/374/532 143/368/533
f 150/354/534 156/355/535 149/369/536 143/368/537
f 115/372/538 102/362/539 107/360/540 116/365/541
f 127/379/542 128/382/543 115/385/544 112/383/545
f 128/327/546 127/337/547 134/326/548 130/320/549
f 142/356/550 136/357/551 130/364/552 134/370/553
f 142/356/554 137/347/555 136/357/556
f 103/302/557 105/312/558 136/311/559 137/301/560
f 107/360/561 102/362/562 105/361/563 103/349/564
f 102/318/565 128/327/566 130/320/567 105/312/568
f 144/374/569 149/369/570 134/370/571 127/375/572
f 137/347/573 142/356/574 156/355/575 151/346/576
f 123/359/577 107/360/578 103/349/579 122/348/580
v 1.8 1.8 -1.8
v 1.8 1.6 -1.8
v 1.8 1.8 -2
v 2 1.6 -1.8
v 2 2 -2
v 1.8 -1.8 1.8
v 1.8 -1.8 1.6
v 1.8 -2 1.8
v 2 -1.8 1.6
v 2 -2 2
v 1.8 -1.8 -2
v 1.8 -1.8 -1.8
v 1.8 -2 -1.8
v 2 -1.8 -1.8
v 2 -2 -2
v -1.8 1.8 -1.8
v -1.8 1.8 -2
v -1.8 1.6 -1.8
v -2 1.6 -1.8
v -2 2 -2
v -1.8 -1.8 1.8
v -1.8 -1.8 1.6
v -1.8 -2 1.8
v -2 -1.8 1.6
v -2 -2 2
v -1.8 -1.8 -2
v -1.8 -1.8 -1.8
v -1.8 -2 -1.8
v -2 -2 -2
v -2 -1.8 -1.8
vt 0.0120192 0.0120192
vt 0.0120192 0.612981
vt 0.0120192 0.637019
vt 0.0120192 1.23798
vt 0.0120192 1.29541
vt 0.0120192 1.86298
vt 0.0120192 1.88542
vt 0.0120192 1.98958
vt 0.0420673 0.667067
vt 0.0420673 1.17788
vt 0.0420673 1.26202
vt 0.0420673 1.29541
vt 0.0420673 1.86298
vt 0.0420673 0.0420673
vt 0.0420673 0.582933
vt 0.552885 0.667067
vt 0.582933 0.0420673
vt 0.582933 0.582933
vt 0.582933 1.26202
vt 0.582933 1.29541
vt 0.582933 1.86298
vt 0.612981 0.0120192
vt 0.612981 0.612981
vt 0.612981 0.637019
vt 0.612981 1.29541
vt 0.612981 1.86298
vt 0.612981 1.88542
vt 0.612981 1.98958
vt 0.636905 1.88542
vt 0.636905 1.98958
vt 0.637019 0.0120192
vt 0.637019 0.612981
vt 0.637019 0.637019
vt 0.637019 1.23798
vt 0.637019 1.29365
vt 0.637019 1.86298
vt 0.667067 0.0420673
vt 0.667067 0.552885
vt 0.667067 0.667067
vt 0.667067 1.20793
vt 0.668649 1.26202
vt 0.668649 1.29365
vt 0.668649 1.83135
vt 0.668649 1.86298
vt 1.1131 1.88542
vt 1.1131 1.98958
vt 1.1369 1.98958
vt 1.1369 1.88542
vt 1.17788 0.0420673
vt 1.20635 1.29365
vt 1.20793 0.667067
vt 1.20793 1.20793
vt 1.23798 0.0120192
vt 1.23798 0.637019
vt 1.23798 1.23798
vt 1.23798 1.26202
vt 1.23798 1.29365
vt 1.26202 0.0120192
vt 1.26202 0.612981
vt 1.26202 0.667067
vt 1.26202 1.20793
vt 1.26202 1.29365
vt 1.26202 1.86298
vt 1.29207 0.0420673
vt 1.29207 0.582933
vt 1.29365 1.26202
vt 1.29365 1.29365
vt 1.29365 1.83135
vt 1.29365 1.86298
vt 1.29541 0.637019
vt 1.29541 0.667067
vt 1.29541 1.20793
vt 1.29541 1.23798
vt 1.6131 1.88542
vt 1.6131 1.98958
vt 1.83135 1.29365
vt 1.83293 0.0420673
vt 1.83293 0.582933
vt 1.86298 0.0120192
vt 1.86298 0.612981
vt 1.86298 0.637019
vt 1.86298 0.667067
vt 1.86298 1.20793
vt 1.86298 1.23798
vt 1.86298 1.26202
vt 1.86298 1.29365
vt 1.88542 0.0120192
vt 1.88542 0.612981
vt 1.98958 0.0120192
vt 1.98958 0.612981
vn 1 0 -0
vn 1 0 -0
vn 1 0 -0
vn 1 0 -0
vn 1 0 -0
vn 1 0 -0
vn 1 0 -0
vn 1 0 -0
vn -1 -0 -0
vn -1 -0 -0
vn -1 -0 -0
vn -1 -0 -0
vn -1 -0 -0
vn -1 -0 -0
vn -1 -0 -0
vn -1 -0 -0
vn 0 -1 -0
vn 0 -1 -0
vn 0 -1 -0
vn 0 -1 -0
vn 0 -1 -0
vn 0 -1 -0
vn 0 -1 -0
vn 0 -1 -0
vn 0 -1 -0
vn 0 -1 -0
vn 0 1 -0
vn 0 1 -0
vn 0 1 -0
vn 0 1 -0
vn 0 1 0
vn 0 1 0
vn 0 1 0
vn 0 1 0
vn 0 -0.707107 -0.707107
vn 0 -0.707107 -0.707107
vn 0 -0.707107 -0.707107
vn 0 -0.707107 -0.707107
vn 0 0 1
vn 0 0 1
vn 0 0 1
vn 0 0 1
vn 0 0 -1
vn 0 0 -1
vn 0 0 -1
vn 0 0 -1
vn 0 0 -1
vn 0 0 -1
vn 0 0 -1
vn 0 0 -1
vn 0 0 -1
vn 0 0 -1
vn 0 0 -1
vn 0 0 -1
vn 0 0 -1
vn 0 0 -1
vn 0 0 1
vn 0 0 1
vn 0 0 1
vn 0 0 1
vn 0 0 1
vn 0 0 1
vn 0 0 1
vn 0 0 1
vn 0 0.707107 0.707107
vn 0 0.707107 0.707107
vn 0 0.707107 0.707107
vn 0 0.707107 0.707107
vn 0 0.707107 0.707107
vn 0 0.707107 0.707107
vn 0 0.707107 0.707107
vn 0 0.707107 0.707107
vn 0 0.707107 0.707107
vn 0 0.707107 0.707107
vn 0 -0.707107 -0.707107
vn 0 -0.707107 -0.707107
vn 0 -0.707107 -0.707107
vn 0 -0.707107 -0.707107
vn 1 0 -0
vn 1 0 -0
vn 1 0 -0
vn 1 0 -0
vn 1 0 -0
vn -1 -0 -0
vn -1 -0 -0
vn -1 -0 -0
vn -1 -0 -0
vn -1 0 -0
vn -1 0 -0
vn -1 0 -0
vn -1 0 -0
vn -1 0 -0
vn 1 0 -0
vn 1 0 -0
vn 1 0 -0
vn 1 0 -0
vn 1 0 -0
vn 1 0 -0
vn 1 0 -0
vn -0 -1 0
vn -0 -1 0
vn -0 -1 0
vn -0 -1 0
vn -0 1 -0
vn -0 1 -0
vn -0 1 -0
vn -0 1 -0
vn -1 -0 -0
vn -1 -0 -0
vn -1 -0 -0
vn -1 -0 -0
vn -1 -0 -0
vn -1 -0 -0
vn -1 -0 -0
usemtl hull-light
f 166/411/581 165/403/582 160/397/583 170/396/584 165/403/585 166/411/586 171/390/587 161/391/588
f 185/418/589 181/440/590 180/436/591 186/424/592 175/425/593 180/436/594 181/440/595 176/419/596
f 181/409/597 185/388/598 171/389/599 169/402/600 184/401/601 179/404/602 164/405/603 169/402/604 171/389/605 166/410/606
f 178/469/607 183/458/608 186/457/609 180/468/610
f 170/460/611 168/459/612 163/470/613 165/471/614
f 174/417/615 178/433/616 180/432/617 175/416/618
f 168/407/619 183/399/620 184/398/621 169/406/622
f 177/395/623 162/415/624 164/414/625 179/394/626
f 171/466/627 185/445/628 176/446/629 173/452/630 182/451/631 167/464/632 159/465/633 173/452/634 176/446/635 161/467/636
f 183/399/637 174/400/638 175/393/639 186/392/640
f 160/413/641 158/408/642 168/407/643 170/412/644
f 161/421/645 176/420/646 172/426/647 157/427/648 162/439/649 177/438/650 172/426/651 176/420/652 181/441/653 166/442/654
f 163/461/655 158/435/656 160/434/657 165/462/658
f 184/428/659 183/429/660 178/437/661 177/444/662 179/443/663
f 158/455/664 163/463/665 162/473/666 157/456/667
f 162/473/668 163/463/669 168/454/670 169/453/671 164/472/672
f 172/431/673 177/444/674 178/437/675 174/430/676 183/429/677 182/422/678 173/423/679
f 157/477/680 172/476/681 173/474/682 159/475/683
f 183/458/684 168/459/685 167/448/686 182/447/687
f 159/450/688 167/449/689 168/454/690 158/455/691 163/463/692 162/473/693 157/456/694
