####
#
#	OBJ File Generated by LightWave3D
#	LightWave3D OBJ Export v2.3
#
####
o k8.obj
mtllib k8.mtl
g default
v 1.8 -2 -1.8
v 1.8 -2 1.8
v -1.8 -2 -1.8
v -1.8 -2 1.8
v 2 2 -2
v 2 2 -1.8
v 1.8 2 -1.8
v 1.8 2 -2
v 1.8 1.8 -2
v 2 1.8 -2
v 2 1.8 -1.8
v 1.8 1.8 -1.8
v -2 2 -2
v -2 2 -1.8
v -1.8 2 -1.8
v -1.8 2 -2
v -2 1.8 -2
v -1.8 1.8 -2
v -1.8 1.8 -1.8
v -2 1.8 -1.8
v 1.8 -2 -2
v 2 -2 -2
v 2 -2 -1.8
v 2 -2 -1.8
v 1.8 -2 -2
v 1.8 -2 -1.8
v 1.8 -1.8 -2
v 2 -1.8 -2
v 2 -1.8 -1.8
v 1.8 -1.8 -1.8
v -2 -2 -1.8
v -2 -2 -2
v -1.8 -2 -2
v -2 -2 -1.8
v -1.8 -2 -2
v -1.8 -2 -1.8
v -2 -1.8 -2
v -1.8 -1.8 -2
v -1.8 -1.8 -1.8
v -2 -1.8 -1.8
v 2 1.8 2
v 2 2 2
v 2 2 1.8
v 1.8 2 2
v 1.8 2 1.8
v 1.8 1.8 2
v 1.8 1.8 1.8
v 2 1.8 1.8
v 2 1.8 2
v 1.8 1.8 2
v -2 1.8 2
v -2 2 2
v -2 2 1.8
v -1.8 2 2
v -1.8 2 1.8
v -1.8 1.8 2
v -2 1.8 1.8
v -1.8 1.8 1.8
v -1.8 1.8 2
v -2 1.8 2
v 2 -2 1.8
v 1.8 -2 2
v 2 -2 2
v 2 -1.8 2
v 2 -2 1.8
v 1.8 -1.8 2
v 1.8 -2 1.8
v 1.8 -2 2
v 1.8 -1.8 1.8
v 2 -1.8 1.8
v 2 -1.8 2
v 1.8 -1.8 2
v -2 -2 1.8
v -2 -1.8 2
v -2 -2 2
v -1.8 -2 2
v -2 -2 1.8
v -1.8 -1.8 2
v -1.8 -2 1.8
v -1.8 -2 2
v -2 -1.8 1.8
v -1.8 -1.8 1.8
v -1.8 -1.8 2
v -2 -1.8 2
vt 0.00149315 0.0462876
vt 0.00149315 0.852589
vt 0.00149315 0.945164
vt 0.00149315 1.75147
vt 0.00149315 1.79925
vt 0.00149315 1.84404
vt 0.00149315 2.65034
vt 0.00149315 2.69514
vt 0.0462876 0.00149315
vt 0.0462876 0.0462876
vt 0.0462876 0.852589
vt 0.0462876 0.897383
vt 0.0462876 1.79925
vt 0.0462876 1.84404
vt 0.0462876 2.65034
vt 0.0462876 2.69514
vt 0.0462877 0.90037
vt 0.0462877 0.945164
vt 0.0462877 1.75147
vt 0.0462877 1.79626
vt 0.852589 0.90037
vt 0.852589 0.945164
vt 0.852589 1.75147
vt 0.852589 1.79626
vt 0.852589 0.00149315
vt 0.852589 0.0462876
vt 0.852589 0.852589
vt 0.852589 0.897383
vt 0.852589 1.79925
vt 0.852589 1.84404
vt 0.852589 2.65034
vt 0.852589 2.69514
vt 0.897383 0.0462876
vt 0.897383 0.852589
vt 0.897383 0.945164
vt 0.897383 1.75147
vt 0.897383 1.79925
vt 0.897383 1.84404
vt 0.897383 2.65034
vt 0.897383 2.69514
vt 0.90037 0.0462876
vt 0.90037 0.852589
vt 0.90037 0.945164
vt 0.90037 1.75147
vt 0.90037 1.84404
vt 0.90037 2.65034
vt 0.90037 0.90037
vt 0.90037 0.945164
vt 0.90037 1.75147
vt 0.90037 1.79626
vt 0.945164 0.90037
vt 0.945164 1.79626
vt 0.945164 1.79925
vt 0.945164 1.84404
vt 0.945164 2.65034
vt 0.945164 2.69514
vt 0.945164 0.00149315
vt 0.945164 0.0462876
vt 0.945164 0.852589
vt 0.945164 0.897383
vt 0.945164 0.90037
vt 0.945164 0.945164
vt 0.945164 1.75147
vt 1.75147 0.00149315
vt 1.75147 0.0462876
vt 1.75147 0.852589
vt 1.75147 0.897383
vt 1.75147 0.90037
vt 1.75147 0.90037
vt 1.75147 0.945164
vt 1.75147 1.75147
vt 1.75147 1.79626
vt 1.75147 1.79925
vt 1.75147 1.84404
vt 1.75147 2.65034
vt 1.75147 2.69514
vt 1.79626 0.0462876
vt 1.79626 0.852589
vt 1.79626 0.90037
vt 1.79626 0.945164
vt 1.79626 1.75147
vt 1.79626 1.79626
vt 1.79626 1.84404
vt 1.79626 2.65034
vt 1.79925 0.00149316
vt 1.79925 0.0462876
vt 1.79925 0.0462877
vt 1.79925 0.852589
vt 1.79925 0.852589
vt 1.79925 0.897383
vt 1.79925 0.90037
vt 1.79925 0.945164
vt 1.79925 1.75147
vt 1.79925 1.79626
vt 1.79925 1.84404
vt 1.79925 2.65034
vt 1.84404 0.00149315
vt 1.84404 0.897383
vt 1.84404 0.90037
vt 1.84404 0.90037
vt 1.84404 0.945164
vt 1.84404 1.75147
vt 1.84404 1.79626
vt 1.84404 1.79925
vt 1.84404 1.84404
vt 1.84404 2.65034
vt 1.84404 2.69514
vt 1.84404 0.00149316
vt 1.84404 0.0462876
vt 1.84404 0.852589
vt 2.65034 0.00149315
vt 2.65034 0.00149316
vt 2.65034 0.0462876
vt 2.65034 0.852589
vt 2.65034 0.897383
vt 2.65034 0.90037
vt 2.65034 0.90037
vt 2.65034 0.945164
vt 2.65034 1.75147
vt 2.65034 1.79626
vt 2.65034 1.79925
vt 2.65034 1.84404
vt 2.65034 2.65034
vt 2.65034 2.69514
vt 2.69514 0.00149316
vt 2.69514 0.0462876
vt 2.69514 0.852589
vt 2.69514 0.897383
vt 2.69514 0.90037
vt 2.69514 0.945164
vt 2.69514 1.75147
vt 2.69514 1.79626
vt 2.69514 1.84404
vt 2.69514 2.65034
vt 2.69812 0.0462876
vt 2.69812 0.852589
vt 2.69812 0.900303
vt 2.69812 0.957375
vt 2.69812 0.960228
vt 2.69812 1.0173
vt 2.69812 1.84404
vt 2.69812 2.65034
vt 2.74292 0.00149315
vt 2.74292 0.0462876
vt 2.74292 0.852589
vt 2.74292 0.897383
vt 2.74292 0.900303
vt 2.74292 0.957375
vt 2.74292 0.960228
vt 2.74292 1.0173
vt 2.74292 1.79925
vt 2.74292 1.84404
vt 2.74292 2.65034
vt 2.74292 2.69514
vt 3.54922 0.00149315
vt 3.54922 0.0462876
vt 3.54922 0.852589
vt 3.54922 0.897383
vt 3.54922 0.900303
vt 3.54922 0.957375
vt 3.54922 0.960228
vt 3.54922 1.0173
vt 3.54922 1.79925
vt 3.54922 1.84404
vt 3.54922 2.65034
vt 3.54922 2.69514
vt 3.59401 0.0462876
vt 3.59401 0.852589
vt 3.59401 0.900303
vt 3.59401 0.957375
vt 3.59401 0.960228
vt 3.59401 1.0173
vt 3.59401 1.84404
vt 3.59401 2.65034
vt 3.59691 0.0014927
vt 3.59691 0.822477
vt 3.63905 0.0014927
vt 3.63905 0.822477
vt 3.64185 0.0014927
vt 3.64185 0.822477
vt 3.68399 0.0014927
vt 3.68399 0.822477
vt 3.6868 0.00142679
vt 3.6868 0.0584983
vt 3.72893 0.00142679
vt 3.72893 0.0584983
vt 3.73174 0.00142679
vt 3.73174 0.0584983
vt 3.77388 0.00142679
vt 3.77388 0.0584983
vt 3.77669 0.00140449
vt 3.77669 0.0435393
vt 3.81882 0.00140449
vt 3.81882 0.0435393
vt 3.82163 0.00140449
vt 3.82163 0.0435393
vt 3.86376 0.00140449
vt 3.86376 0.0435393
vn 0 0 1
vn 0 0 1
vn 0 0 1
vn 0 0 1
vn 1 0 -0
vn 1 0 -0
vn 1 0 -0
vn 1 0 -0
vn 0 0 -1
vn 0 0 -1
vn 0 0 -1
vn 0 0 -1
vn -1 0 -0
vn -1 0 -0
vn -1 0 -0
vn -1 0 -0
vn 0 0 1
vn 0 0 1
vn 0 0 1
vn 0 0 1
vn 1 0 -0
vn 1 0 -0
vn 1 0 -0
vn 1 0 -0
vn 0 0 -1
vn 0 0 -1
vn 0 0 -1
vn 0 0 -1
vn -1 0 -0
vn -1 0 -0
vn -1 0 -0
vn -1 0 -0
vn 0 0 1
vn 0 0 1
vn 0 0 1
vn 0 0 1
vn 1 0 -0
vn 1 0 -0
vn 1 0 -0
vn 1 0 -0
vn 0 0 -1
vn 0 0 -1
vn 0 0 -1
vn 0 0 -1
vn -1 0 -0
vn -1 0 -0
vn -1 0 -0
vn -1 0 -0
vn 0 0 1
vn 0 0 1
vn 0 0 1
vn 0 0 1
vn 1 0 -0
vn 1 0 -0
vn 1 0 -0
vn 1 0 -0
vn 0 0 -1
vn 0 0 -1
vn 0 0 -1
vn 0 0 -1
vn -1 0 -0
vn -1 0 -0
vn -1 0 -0
vn -1 0 -0
vn 0 -1 -0
vn 0 -1 -0
vn 0 -1 -0
vn 0 -1 -0
vn 0 0 -1
vn 0 0 -1
vn 0 0 -1
vn 0 0 -1
vn 0 1 -0
vn 0 1 -0
vn 0 1 -0
vn 0 1 -0
vn 0 0 1
vn 0 0 1
vn 0 0 1
vn 0 0 1
vn 0 -1 -1.19209e-06
vn 0 -1 -1.19209e-06
vn 0 -1 -1.19209e-06
vn 0 -1 -1.19209e-06
vn 0 0 -1
vn 0 0 -1
vn 0 0 -1
vn 0 0 -1
vn 0 1 -0
vn 0 1 -0
vn 0 1 -0
vn 0 1 -0
vn 0 0 1
vn 0 0 1
vn 0 0 1
vn 0 0 1
vn 0 -1 -0
vn 0 -1 -0
vn 0 -1 -0
vn 0 -1 -0
vn 0 0 -1
vn 0 0 -1
vn 0 0 -1
vn 0 0 -1
vn -0 1 -1.19209e-06
vn -0 1 -1.19209e-06
vn -0 1 -1.19209e-06
vn -0 1 -1.19209e-06
vn 0 0 1
vn 0 0 1
vn 0 0 1
vn 0 0 1
vn 0 -1 -0
vn 0 -1 -0
vn 0 -1 -0
vn 0 -1 -0
vn 0 0 -1
vn 0 0 -1
vn 0 0 -1
vn 0 0 -1
vn 0 1 -0
vn 0 1 -0
vn 0 1 -0
vn 0 1 -0
vn 0 0 1
vn 0 0 1
vn 0 0 1
vn 0 0 1
vn 0 -1 -0
vn 0 -1 -0
vn 0 -1 -0
vn 0 -1 -0
vn 1 -0 -0
vn 1 -0 -0
vn 1 -0 -0
vn 1 -0 -0
vn -0 1 -0
vn -0 1 -0
vn -0 1 -0
vn -0 1 -0
vn -1 0 -0
vn -1 0 -0
vn -1 0 -0
vn -1 0 -0
vn 0 -1 -0
vn 0 -1 -0
vn 0 -1 -0
vn 0 -1 -0
vn 1 -0 -0
vn 1 -0 -0
vn 1 -0 -0
vn 1 -0 -0
vn -0 1 -0
vn -0 1 -0
vn -0 1 -0
vn -0 1 -0
vn -1 0 -0
vn -1 0 -0
vn -1 0 -0
vn -1 0 -0
vn 0 -1 -0
vn 0 -1 -0
vn 0 -1 -0
vn 0 -1 -0
vn 1 -0 -0
vn 1 -0 -0
vn 1 -0 -0
vn 1 -0 -0
vn -0 1 -0
vn -0 1 -0
vn -0 1 -0
vn -0 1 -0
vn -1 0 -0
vn -1 0 -0
vn -1 0 -0
vn -1 0 -0
vn 0 -1 -0
vn 0 -1 -0
vn 0 -1 -0
vn 0 -1 -0
vn 1 -0 -0
vn 1 -0 -0
vn 1 -0 -0
vn 1 -0 -0
vn -0 1 -0
vn -0 1 -0
vn -0 1 -0
vn -0 1 -0
vn -1 0 -0
vn -1 0 -0
vn -1 0 -0
vn -1 0 -0
vn 0 0 -1
vn 0 0 -1
vn 0 0 -1
vn 0 0 -1
vn 1 -0 -0
vn 1 -0 -0
vn 1 -0 -0
vn 1 -0 -0
vn -0 1 -0
vn -0 1 -0
vn -0 1 -0
vn -0 1 -0
vn 0 -1 -0
vn 0 -1 -0
vn 0 -1 -0
vn 0 -1 -0
vn 1 0 -0
vn 1 0 -0
vn 1 0 -0
vn 1 0 -0
vn 0 0 -1
vn 0 0 -1
vn 0 0 -1
vn 0 0 -1
vn 0 0 1
vn 0 0 1
vn 0 0 1
vn 0 0 1
vn 1 0 -0
vn 1 0 -0
vn 1 0 -0
vn 1 0 -0
vn 0 -1 -0
vn 0 -1 -0
vn 0 -1 -0
vn 0 -1 -0
vn -0 1 -0
vn -0 1 -0
vn -0 1 -0
vn -0 1 -0
vn 1 0 -0
vn 1 0 -0
vn 1 0 -0
vn 1 0 -0
vn 0 0 1
vn 0 0 1
vn 0 0 1
vn 0 0 1
vn -1 0 -0
vn -1 0 -0
vn -1 0 -0
vn -1 0 -0
vn 0 1 -0
vn 0 1 -0
vn 0 1 -0
vn 0 1 -0
vn 0 -1 -0
vn 0 -1 -0
vn 0 -1 -0
vn 0 -1 -0
vn -1 0 -0
vn -1 0 -0
vn -1 0 -0
vn -1 0 -0
vn 0 -0 -1
vn 0 -0 -1
vn 0 -0 -1
vn 0 -0 -1
vn -0 -0 1
vn -0 -0 1
vn -0 -0 1
vn -0 -0 1
vn -1 0 -0
vn -1 0 -0
vn -1 0 -0
vn -1 0 -0
vn 0 -1 -0
vn 0 -1 -0
vn 0 -1 -0
vn 0 -1 -0
vn 0 1 -0
vn 0 1 -0
vn 0 1 -0
vn 0 1 -0
vn -1 -0 0
vn -1 -0 0
vn -1 -0 0
vn -1 -0 0
vn -0 -0 1
vn -0 -0 1
vn -0 -0 1
vn -0 -0 1
vn 0 -0 -1
vn 0 -0 -1
vn 0 -0 -1
vn 0 -0 -1
g hull-light
usemtl hull-light
s off
f 29/33/1 11/34/2 12/27/3 30/26/4
f 28/80/5 10/81/6 11/71/7 29/70/8
f 9/119/9 10/131/10 28/130/11 27/118/12
f 12/23/13 9/36/14 27/35/15 30/22/16
f 39/10/17 19/11/18 20/2/19 40/1/20
f 38/77/21 18/78/22 19/66/23 39/65/24
f 17/93/25 18/102/26 38/101/27 37/92/28
f 20/114/29 17/127/30 37/126/31 40/113/32
f 83/181/33 59/182/34 60/180/35 84/179/36
f 82/58/37 58/59/38 59/42/39 83/41/40
f 57/136/41 58/145/42 82/144/43 81/135/44
f 60/89/45 57/110/46 81/109/47 84/86/48
f 71/177/49 49/178/50 50/176/51 72/175/52
f 70/62/53 48/63/54 49/44/55 71/43/56
f 47/157/57 48/168/58 70/167/59 69/156/60
f 50/4/61 47/19/62 69/18/63 72/3/64
f 18/107/65 9/124/66 12/123/67 19/106/68
f 16/103/69 8/120/70 9/119/71 18/102/72
f 7/31/73 8/32/74 16/16/75 15/15/76
f 12/27/77 7/28/78 15/12/79 19/11/80
f 58/105/81 47/122/82 46/121/83 56/104/84
f 55/146/85 45/158/86 47/157/87 58/145/88
f 44/29/89 45/30/90 55/14/91 54/13/92
f 46/161/93 44/162/94 54/150/95 56/149/96
f 79/54/97 67/74/98 68/73/99 80/53/100
f 82/144/101 69/156/102 67/155/103 79/143/104
f 66/163/105 69/164/106 82/152/107 78/151/108
f 68/159/109 66/160/110 78/148/111 80/147/112
f 35/56/113 25/76/114 26/75/115 36/55/116
f 38/101/117 27/118/118 25/116/119 35/99/120
f 30/165/121 27/166/122 38/154/123 39/153/124
f 26/25/125 30/26/126 39/10/127 36/9/128
f 11/134/129 48/133/130 47/122/131 12/123/132
f 6/72/133 43/52/134 48/63/135 11/71/136
f 45/30/137 43/38/138 6/39/139 7/31/140
f 47/19/141 45/20/142 7/24/143 12/23/144
f 19/106/145 58/105/146 57/95/147 20/96/148
f 15/67/149 55/60/150 58/59/151 19/66/152
f 53/6/153 55/14/154 15/15/155 14/7/156
f 57/110/157 53/98/158 14/115/159 20/114/160
f 36/55/161 79/54/162 77/45/163 34/46/164
f 39/65/165 82/58/166 79/57/167 36/64/168
f 81/141/169 82/152/170 39/153/171 40/142/172
f 77/97/173 81/109/174 40/113/175 34/111/176
f 24/84/177 65/83/178 67/74/179 26/75/180
f 29/70/181 70/62/182 65/51/183 24/68/184
f 69/164/185 70/173/186 29/174/187 30/165/188
f 67/17/189 69/18/190 30/22/191 26/21/192
f 8/120/193 5/132/194 10/131/195 9/119/196
f 5/82/197 6/72/198 11/71/199 10/81/200
f 7/31/201 6/39/202 5/40/203 8/32/204
f 21/184/205 22/186/206 23/185/207 1/183/208
f 22/79/209 28/80/210 29/70/211 23/69/212
f 27/118/213 28/130/214 22/129/215 21/117/216
f 62/159/217 63/169/218 64/170/219 66/160/220
f 63/47/221 61/61/222 70/62/223 64/48/224
f 2/192/225 61/194/226 63/193/227 62/191/228
f 44/29/229 42/37/230 43/38/231 45/30/232
f 42/50/233 41/49/234 48/63/235 43/52/236
f 46/161/237 41/171/238 42/172/239 44/162/240
f 20/114/241 14/115/242 13/128/243 17/127/244
f 13/8/245 14/7/246 15/15/247 16/16/248
f 31/187/249 32/188/250 33/190/251 3/189/252
f 40/113/253 37/126/254 32/125/255 31/112/256
f 32/91/257 37/92/258 38/101/259 33/100/260
f 74/138/261 75/137/262 76/147/263 78/148/264
f 81/109/265 73/108/266 75/85/267 74/87/268
f 75/195/269 73/196/270 4/198/271 76/197/272
f 53/6/273 52/5/274 54/13/275 55/14/276
f 57/110/277 51/88/278 52/90/279 53/98/280
f 52/140/281 51/139/282 56/149/283 54/150/284
f 17/93/285 13/94/286 16/103/287 18/102/288
