####
#
#	OBJ File Generated by LightWave3D
#	LightWave3D OBJ Export v2.3
#
####
o p1111.obj
mtllib p1111.mtl
g default
v -1.8 -1.8 -2.2
v -1.8 1.8 -2.2
v 1.8 1.8 -2.2
v 1.8 -1.8 -2.2
v 2 -2 -2
v 2 2 -2
v -2 2 -2
v -2 -2 -2
vt 0 0
vt 0 1
vt 0.05 0.05
vt 0.05 0.95
vt 0.95 0.05
vt 0.95 0.95
vt 1 0
vt 1 1
vn 0 0 -1
vn 0 0 -1
vn 0 0 -1
vn 0 0 -1
vn -0.707107 0 -0.707107
vn -0.707107 0 -0.707107
vn -0.707107 0 -0.707107
vn -0.707107 0 -0.707107
vn -0 0.707107 -0.707107
vn -0 0.707107 -0.707107
vn -0 0.707107 -0.707107
vn -0 0.707107 -0.707107
vn 0.707107 -0 -0.707107
vn 0.707107 -0 -0.707107
vn 0.707107 -0 -0.707107
vn 0.707107 -0 -0.707107
vn 0 -0.707107 -0.707107
vn 0 -0.707107 -0.707107
vn 0 -0.707107 -0.707107
vn 0 -0.707107 -0.707107
vn 0 0 1
vn 0 0 1
vn 0 0 1
vn 0 0 1
g outer
usemtl outer
s off
f 2/4/1 3/6/2 4/5/3 1/3/4
f 8/1/5 7/2/6 2/4/7 1/3/8
f 7/2/9 6/8/10 3/6/11 2/4/12
f 3/6/13 6/8/14 5/7/15 4/5/16
f 4/5/17 5/7/18 8/1/19 1/3/20
g mount
usemtl mount
f 5/7/21 6/8/22 7/2/23 8/1/24
