# rmmr etalon — five submeshes, one triangle each (XY, +Z). Assimp: OBJ groups.
# Intentional material-name noise: usemtl repeats across parts (shared shelf later).

o part_a
usemtl metal
v 0.0 0.0 0.0
v 0.8 0.0 0.0
v 0.4 0.7 0.0
vt 0.0 0.0
vt 1.0 0.0
vt 0.5 1.0
vn 0.0 0.0 1.0
f 1/1/1 2/2/1 3/3/1

o part_b
usemtl glass
v 1.0 0.0 0.0
v 1.8 0.0 0.0
v 1.4 0.7 0.0
vt 0.0 0.0
vt 1.0 0.0
vt 0.5 1.0
vn 0.0 0.0 1.0
f 4/1/1 5/2/1 6/3/1

o part_c
usemtl metal
v 2.0 0.0 0.0
v 2.8 0.0 0.0
v 2.4 0.7 0.0
vt 0.0 0.0
vt 1.0 0.0
vt 0.5 1.0
vn 0.0 0.0 1.0
f 7/1/1 8/2/1 9/3/1

o part_d
usemtl rubber
v 3.0 0.0 0.0
v 3.8 0.0 0.0
v 3.4 0.7 0.0
vt 0.0 0.0
vt 1.0 0.0
vt 0.5 1.0
vn 0.0 0.0 1.0
f 10/1/1 11/2/1 12/3/1

o part_e
usemtl glass
v 4.0 0.0 0.0
v 4.8 0.0 0.0
v 4.4 0.7 0.0
vt 0.0 0.0
vt 1.0 0.0
vt 0.5 1.0
vn 0.0 0.0 1.0
f 13/1/1 14/2/1 15/3/1
